{
    "asset" : {
        "generator" : "Khronos glTF Blender I/O v1.7.33",
        "version" : "2.0"
    },
    "scene" : 0,
    "scenes" : [
        {
            "name" : "Scene",
            "nodes" : [
                0,
                2,
                3,
                4,
                5,
                6,
                7,
                8
            ]
        }
    ],
    "nodes" : [
        {
            "mesh" : 0,
            "name" : "Sphere"
        },
        {
            "mesh" : 1,
            "name" : "Icing",
            "translation" : [
                0.03480015695095062,
                0.007813121192157269,
                -0.03196186572313309
            ]
        },
        {
            "children" : [
                1
            ],
            "mesh" : 2,
            "name" : "Donut",
            "rotation" : [
                0.45315390825271606,
                -0.36599814891815186,
                0.21130913496017456,
                0.784885585308075
            ],
            "scale" : [
                316.3554382324219,
                316.35540771484375,
                316.3554382324219
            ],
            "translation" : [
                0.001345677301287651,
                -0.009229522198438644,
                -0.048651352524757385
            ]
        },
        {
            "mesh" : 3,
            "name" : "Cube",
            "scale" : [
                -69.96781158447266,
                -69.96781158447266,
                -69.96781158447266
            ],
            "translation" : [
                0.0013456754386425018,
                -0.009229518473148346,
                -0.048651352524757385
            ]
        },
        {
            "mesh" : 4,
            "name" : "Plane",
            "translation" : [
                0.5923784971237183,
                0.38903892040252686,
                -0.3969580829143524
            ]
        },
        {
            "mesh" : 5,
            "name" : "Sprinkle",
            "translation" : [
                0.2058286964893341,
                0.07038650661706924,
                0
            ]
        },
        {
            "mesh" : 6,
            "name" : "Sprinkle.001",
            "translation" : [
                0.22848573327064514,
                0.07038650661706924,
                0
            ]
        },
        {
            "mesh" : 7,
            "name" : "Sprinkle.002",
            "translation" : [
                0.21738064289093018,
                0.07038650661706924,
                0
            ]
        },
        {
            "mesh" : 8,
            "name" : "Sprinkle.003",
            "translation" : [
                0.24253687262535095,
                0.07038650661706924,
                0
            ]
        }
    ],
    "animations" : [
        {
            "channels" : [
                {
                    "sampler" : 0,
                    "target" : {
                        "node" : 2,
                        "path" : "rotation"
                    }
                }
            ],
            "name" : "DonutAction",
            "samplers" : [
                {
                    "input" : 35,
                    "interpolation" : "LINEAR",
                    "output" : 36
                }
            ]
        }
    ],
    "materials" : [
        {
            "doubleSided" : true,
            "name" : "Material.002",
            "pbrMetallicRoughness" : {
                "baseColorFactor" : [
                    1,
                    0.28933605551719666,
                    0.9570968747138977,
                    1
                ],
                "metallicFactor" : 0,
                "roughnessFactor" : 0.2630331516265869
            }
        },
        {
            "doubleSided" : true,
            "name" : "Material.003",
            "pbrMetallicRoughness" : {
                "baseColorTexture" : {
                    "index" : 0
                },
                "metallicFactor" : 0,
                "roughnessFactor" : 0.5
            }
        },
        {
            "doubleSided" : true,
            "name" : "Material.004",
            "pbrMetallicRoughness" : {
                "baseColorFactor" : [
                    0.5029742121696472,
                    0.2261011302471161,
                    0.5629642605781555,
                    1
                ],
                "metallicFactor" : 0,
                "roughnessFactor" : 0.5
            }
        },
        {
            "doubleSided" : true,
            "name" : "Material.001",
            "pbrMetallicRoughness" : {
                "baseColorFactor" : [
                    0.8000000715255737,
                    0.4001005291938782,
                    0.7986084222793579,
                    1
                ],
                "metallicFactor" : 0,
                "roughnessFactor" : 0.5
            }
        },
        {
            "doubleSided" : true,
            "name" : "Material",
            "pbrMetallicRoughness" : {
                "metallicFactor" : 0,
                "roughnessFactor" : 0.5
            }
        }
    ],
    "meshes" : [
        {
            "name" : "Sphere",
            "primitives" : [
                {
                    "attributes" : {
                        "POSITION" : 0,
                        "NORMAL" : 1,
                        "TEXCOORD_0" : 2
                    },
                    "indices" : 3
                }
            ]
        },
        {
            "name" : "Torus.002",
            "primitives" : [
                {
                    "attributes" : {
                        "POSITION" : 4,
                        "NORMAL" : 5,
                        "TEXCOORD_0" : 6
                    },
                    "indices" : 7,
                    "material" : 0
                }
            ]
        },
        {
            "name" : "Torus.001",
            "primitives" : [
                {
                    "attributes" : {
                        "POSITION" : 8,
                        "NORMAL" : 9,
                        "TEXCOORD_0" : 10
                    },
                    "indices" : 11,
                    "material" : 1
                }
            ]
        },
        {
            "name" : "Cube",
            "primitives" : [
                {
                    "attributes" : {
                        "POSITION" : 12,
                        "NORMAL" : 13,
                        "TEXCOORD_0" : 14
                    },
                    "indices" : 15,
                    "material" : 2
                }
            ]
        },
        {
            "name" : "Plane",
            "primitives" : [
                {
                    "attributes" : {
                        "POSITION" : 16,
                        "NORMAL" : 17,
                        "TEXCOORD_0" : 18
                    },
                    "indices" : 19,
                    "material" : 3
                }
            ]
        },
        {
            "name" : "Cylinder",
            "primitives" : [
                {
                    "attributes" : {
                        "POSITION" : 20,
                        "NORMAL" : 21,
                        "TEXCOORD_0" : 22
                    },
                    "indices" : 23,
                    "material" : 4
                }
            ]
        },
        {
            "name" : "Cylinder.003",
            "primitives" : [
                {
                    "attributes" : {
                        "POSITION" : 24,
                        "NORMAL" : 25,
                        "TEXCOORD_0" : 26
                    },
                    "indices" : 23,
                    "material" : 4
                }
            ]
        },
        {
            "name" : "Cylinder.002",
            "primitives" : [
                {
                    "attributes" : {
                        "POSITION" : 27,
                        "NORMAL" : 28,
                        "TEXCOORD_0" : 29
                    },
                    "indices" : 30,
                    "material" : 4
                }
            ]
        },
        {
            "name" : "Cylinder.006",
            "primitives" : [
                {
                    "attributes" : {
                        "POSITION" : 31,
                        "NORMAL" : 32,
                        "TEXCOORD_0" : 33
                    },
                    "indices" : 34,
                    "material" : 4
                }
            ]
        }
    ],
    "textures" : [
        {
            "sampler" : 0,
            "source" : 0
        }
    ],
    "images" : [
        {
            "bufferView" : 12,
            "mimeType" : "image/png",
            "name" : "Donut Base_"
        }
    ],
    "accessors" : [
        {
            "bufferView" : 0,
            "componentType" : 5126,
            "count" : 338,
            "max" : [
                0.0009999998146668077,
                0.005024392157793045,
                0.0009999996982514858
            ],
            "min" : [
                -0.0009999998146668077,
                -0.0010000000474974513,
                -0.0009999998146668077
            ],
            "type" : "VEC3"
        },
        {
            "bufferView" : 1,
            "componentType" : 5126,
            "count" : 338,
            "type" : "VEC3"
        },
        {
            "bufferView" : 2,
            "componentType" : 5126,
            "count" : 338,
            "type" : "VEC2"
        },
        {
            "bufferView" : 3,
            "componentType" : 5123,
            "count" : 504,
            "type" : "SCALAR"
        },
        {
            "bufferView" : 4,
            "componentType" : 5126,
            "count" : 4158,
            "max" : [
                0.03940706327557564,
                0.02136894315481186,
                0.10135642439126968
            ],
            "min" : [
                -0.10169150680303574,
                -0.018693840131163597,
                -0.0367707759141922
            ],
            "type" : "VEC3"
        },
        {
            "bufferView" : 5,
            "componentType" : 5126,
            "count" : 4158,
            "type" : "VEC3"
        },
        {
            "bufferView" : 6,
            "componentType" : 5126,
            "count" : 4158,
            "type" : "VEC2"
        },
        {
            "bufferView" : 7,
            "componentType" : 5123,
            "count" : 23040,
            "type" : "SCALAR"
        },
        {
            "bufferView" : 8,
            "componentType" : 5126,
            "count" : 8216,
            "max" : [
                0.07376881688833237,
                77.02915954589844,
                0.07035630196332932
            ],
            "min" : [
                -0.06932450085878372,
                -0.024779563769698143,
                -0.071942038834095
            ],
            "type" : "VEC3"
        },
        {
            "bufferView" : 9,
            "componentType" : 5126,
            "count" : 8216,
            "type" : "VEC3"
        },
        {
            "bufferView" : 10,
            "componentType" : 5126,
            "count" : 8216,
            "type" : "VEC2"
        },
        {
            "bufferView" : 11,
            "componentType" : 5123,
            "count" : 43008,
            "type" : "SCALAR"
        },
        {
            "bufferView" : 13,
            "componentType" : 5126,
            "count" : 24,
            "max" : [
                1,
                1,
                1
            ],
            "min" : [
                -1,
                -1,
                -1
            ],
            "type" : "VEC3"
        },
        {
            "bufferView" : 14,
            "componentType" : 5126,
            "count" : 24,
            "type" : "VEC3"
        },
        {
            "bufferView" : 15,
            "componentType" : 5126,
            "count" : 24,
            "type" : "VEC2"
        },
        {
            "bufferView" : 16,
            "componentType" : 5123,
            "count" : 36,
            "type" : "SCALAR"
        },
        {
            "bufferView" : 17,
            "componentType" : 5126,
            "count" : 4,
            "max" : [
                1,
                0,
                1
            ],
            "min" : [
                -1,
                0,
                -1
            ],
            "type" : "VEC3"
        },
        {
            "bufferView" : 18,
            "componentType" : 5126,
            "count" : 4,
            "type" : "VEC3"
        },
        {
            "bufferView" : 19,
            "componentType" : 5126,
            "count" : 4,
            "type" : "VEC2"
        },
        {
            "bufferView" : 20,
            "componentType" : 5123,
            "count" : 6,
            "type" : "SCALAR"
        },
        {
            "bufferView" : 21,
            "componentType" : 5126,
            "count" : 52,
            "max" : [
                0.0013347406638786197,
                0.0013864015927538276,
                0.004704758059233427
            ],
            "min" : [
                -0.0013347406638786197,
                -0.0013864015927538276,
                -0.004704758059233427
            ],
            "type" : "VEC3"
        },
        {
            "bufferView" : 22,
            "componentType" : 5126,
            "count" : 52,
            "type" : "VEC3"
        },
        {
            "bufferView" : 23,
            "componentType" : 5126,
            "count" : 52,
            "type" : "VEC2"
        },
        {
            "bufferView" : 24,
            "componentType" : 5123,
            "count" : 180,
            "type" : "SCALAR"
        },
        {
            "bufferView" : 25,
            "componentType" : 5126,
            "count" : 52,
            "max" : [
                0.0013347406638786197,
                0.0013864015927538276,
                0.00023455917835235596
            ],
            "min" : [
                -0.0013347406638786197,
                -0.0013864015927538276,
                -0.004704758059233427
            ],
            "type" : "VEC3"
        },
        {
            "bufferView" : 26,
            "componentType" : 5126,
            "count" : 52,
            "type" : "VEC3"
        },
        {
            "bufferView" : 27,
            "componentType" : 5126,
            "count" : 52,
            "type" : "VEC2"
        },
        {
            "bufferView" : 28,
            "componentType" : 5126,
            "count" : 61,
            "max" : [
                0.0029101227410137653,
                0.0013864015927538276,
                0.010364013724029064
            ],
            "min" : [
                -0.001099919667467475,
                -0.0013864015927538276,
                0.0016961911460384727
            ],
            "type" : "VEC3"
        },
        {
            "bufferView" : 29,
            "componentType" : 5126,
            "count" : 61,
            "type" : "VEC3"
        },
        {
            "bufferView" : 30,
            "componentType" : 5126,
            "count" : 61,
            "type" : "VEC2"
        },
        {
            "bufferView" : 31,
            "componentType" : 5123,
            "count" : 228,
            "type" : "SCALAR"
        },
        {
            "bufferView" : 32,
            "componentType" : 5126,
            "count" : 78,
            "max" : [
                0.0013420118484646082,
                0.0013864015927538276,
                0.004704758059233427
            ],
            "min" : [
                -0.0021143024787306786,
                -0.0013864015927538276,
                -0.004783797077834606
            ],
            "type" : "VEC3"
        },
        {
            "bufferView" : 33,
            "componentType" : 5126,
            "count" : 78,
            "type" : "VEC3"
        },
        {
            "bufferView" : 34,
            "componentType" : 5126,
            "count" : 78,
            "type" : "VEC2"
        },
        {
            "bufferView" : 35,
            "componentType" : 5123,
            "count" : 312,
            "type" : "SCALAR"
        },
        {
            "bufferView" : 36,
            "componentType" : 5126,
            "count" : 301,
            "max" : [
                10.033333333333333
            ],
            "min" : [
                0.03333333333333333
            ],
            "type" : "SCALAR"
        },
        {
            "bufferView" : 37,
            "componentType" : 5126,
            "count" : 301,
            "type" : "VEC4"
        }
    ],
    "bufferViews" : [
        {
            "buffer" : 0,
            "byteLength" : 4056,
            "byteOffset" : 0
        },
        {
            "buffer" : 0,
            "byteLength" : 4056,
            "byteOffset" : 4056
        },
        {
            "buffer" : 0,
            "byteLength" : 2704,
            "byteOffset" : 8112
        },
        {
            "buffer" : 0,
            "byteLength" : 1008,
            "byteOffset" : 10816
        },
        {
            "buffer" : 0,
            "byteLength" : 49896,
            "byteOffset" : 11824
        },
        {
            "buffer" : 0,
            "byteLength" : 49896,
            "byteOffset" : 61720
        },
        {
            "buffer" : 0,
            "byteLength" : 33264,
            "byteOffset" : 111616
        },
        {
            "buffer" : 0,
            "byteLength" : 46080,
            "byteOffset" : 144880
        },
        {
            "buffer" : 0,
            "byteLength" : 98592,
            "byteOffset" : 190960
        },
        {
            "buffer" : 0,
            "byteLength" : 98592,
            "byteOffset" : 289552
        },
        {
            "buffer" : 0,
            "byteLength" : 65728,
            "byteOffset" : 388144
        },
        {
            "buffer" : 0,
            "byteLength" : 86016,
            "byteOffset" : 453872
        },
        {
            "buffer" : 0,
            "byteLength" : 63316,
            "byteOffset" : 539888
        },
        {
            "buffer" : 0,
            "byteLength" : 288,
            "byteOffset" : 603204
        },
        {
            "buffer" : 0,
            "byteLength" : 288,
            "byteOffset" : 603492
        },
        {
            "buffer" : 0,
            "byteLength" : 192,
            "byteOffset" : 603780
        },
        {
            "buffer" : 0,
            "byteLength" : 72,
            "byteOffset" : 603972
        },
        {
            "buffer" : 0,
            "byteLength" : 48,
            "byteOffset" : 604044
        },
        {
            "buffer" : 0,
            "byteLength" : 48,
            "byteOffset" : 604092
        },
        {
            "buffer" : 0,
            "byteLength" : 32,
            "byteOffset" : 604140
        },
        {
            "buffer" : 0,
            "byteLength" : 12,
            "byteOffset" : 604172
        },
        {
            "buffer" : 0,
            "byteLength" : 624,
            "byteOffset" : 604184
        },
        {
            "buffer" : 0,
            "byteLength" : 624,
            "byteOffset" : 604808
        },
        {
            "buffer" : 0,
            "byteLength" : 416,
            "byteOffset" : 605432
        },
        {
            "buffer" : 0,
            "byteLength" : 360,
            "byteOffset" : 605848
        },
        {
            "buffer" : 0,
            "byteLength" : 624,
            "byteOffset" : 606208
        },
        {
            "buffer" : 0,
            "byteLength" : 624,
            "byteOffset" : 606832
        },
        {
            "buffer" : 0,
            "byteLength" : 416,
            "byteOffset" : 607456
        },
        {
            "buffer" : 0,
            "byteLength" : 732,
            "byteOffset" : 607872
        },
        {
            "buffer" : 0,
            "byteLength" : 732,
            "byteOffset" : 608604
        },
        {
            "buffer" : 0,
            "byteLength" : 488,
            "byteOffset" : 609336
        },
        {
            "buffer" : 0,
            "byteLength" : 456,
            "byteOffset" : 609824
        },
        {
            "buffer" : 0,
            "byteLength" : 936,
            "byteOffset" : 610280
        },
        {
            "buffer" : 0,
            "byteLength" : 936,
            "byteOffset" : 611216
        },
        {
            "buffer" : 0,
            "byteLength" : 624,
            "byteOffset" : 612152
        },
        {
            "buffer" : 0,
            "byteLength" : 624,
            "byteOffset" : 612776
        },
        {
            "buffer" : 0,
            "byteLength" : 1204,
            "byteOffset" : 613400
        },
        {
            "buffer" : 0,
            "byteLength" : 4816,
            "byteOffset" : 614604
        }
    ],
    "samplers" : [
        {
            "magFilter" : 9729,
            "minFilter" : 9987
        }
    ],
    "buffers" : [
        {
            "byteLength" : 619420,
            "uri" : "data:application/octet-stream;base64,"
        }
    ]
}
